REM MD5 1972fd4ffe4c32b3b6caa0a8bb6818fd
FILE "UEFA Champions League - Temporada 1998-99 (Spain).bin" BINARY
  TRACK 01 MODE2/2352
    INDEX 01 00:00:00
  TRACK 02 AUDIO
    INDEX 00 40:51:41
    INDEX 01 40:53:41
  TRACK 03 AUDIO
    INDEX 00 45:47:46
    INDEX 01 45:49:46
REM LEADOUT 50:55:73
